<svg xmlns="http://www.w3.org/2000/svg" width="128" height="128"><path d="M8 24h112v88H8z" fill="#f6f5f4"/><rect height="12" ry="4" width="112" x="8" y="16" fill="#c0bfbc"/><path d="M8 24h112v4H8z" fill="#c0bfbc"/><g fill="#9a9996"><path d="M8 28h4v84H8z"/><path d="M8 108h112v4H8z"/><path d="M116 28h4v84h-4z"/><path d="M8 28h112v4H8z"/></g><g transform="scale(4)" fill="#3d3846"><rect height="1" ry=".5" width="1" x="28" y="5"/><rect height="1" ry=".5" width="1" x="26" y="5"/><rect height="1" ry=".5" width="1" x="24" y="5"/></g><path d="M12 96h104v12H12z" fill="#241f31"/><path d="M12 96h12v12H12zm88 4h12v4h-12zm-8 0h4v4h-4zm-8 0h4v4h-4zm-56 0h4v4h-4zm8 0h24v4H36z" fill="#fff"/><path d="M20 36h8v8h-8zm-4 12h16v4H16zm4 8h8v8h-8zm-4 12h16v4H16z" fill="#3d3846"/><path d="M74 56a14.06 14.06 0 0 0-14 14c0 7.684 6.32 14 14 14h2v-8h-2c-3.36 0-6-2.64-6-6s2.64-6 6-6h26v-8z" style="line-height:normal;font-variant-ligatures:normal;font-variant-position:normal;font-variant-caps:normal;font-variant-numeric:normal;font-variant-alternates:normal;font-feature-settings:normal;text-indent:0;text-align:start;text-decoration-line:none;text-decoration-style:solid;text-decoration-color:#000;text-transform:none;text-orientation:mixed;shape-padding:0;isolation:auto;mix-blend-mode:normal;marker:none" font-weight="400" overflow="visible" color="#000" font-family="sans-serif" white-space="normal" fill="#3d3846"/><path d="M88 44v4c0 1.028.52 2.112 1.252 2.876L98.372 60l-9.12 9.124C88.52 69.884 88 70.972 88 72v4h4c1.24 0 2.208-.36 3-1.124L109.624 60 95 45.124c-.792-.76-1.76-1.124-3-1.124z" style="line-height:normal;-inkscape-font-specification:'Bitstream Vera Sans';text-indent:0;text-align:start;text-decoration-line:none;text-transform:none;marker:none" font-weight="400" overflow="visible" color="#bebebe" font-family="Bitstream Vera Sans" fill="#3d3846"/></svg>