<svg xmlns="http://www.w3.org/2000/svg" width="128" height="128"><path d="M8 24h112v88H8z" fill="#f6f5f4"/><rect height="12" ry="4" width="112" x="8" y="16" fill="#c0bfbc"/><path d="M8 24h112v4H8z" fill="#c0bfbc"/><g fill="#9a9996"><path d="M8 28h4v84H8z"/><path d="M8 108h112v4H8z"/><path d="M116 28h4v84h-4z"/><path d="M8 28h112v4H8z"/></g><g transform="scale(4)" fill="#3d3846"><rect height="1" ry=".5" width="1" x="28" y="5"/><rect height="1" ry=".5" width="1" x="26" y="5"/><rect height="1" ry=".5" width="1" x="24" y="5"/></g><path d="M12 96h104v12H12z" fill="#241f31"/><path d="M12 96h12v12H12zm88 4h12v4h-12zm-8 0h4v4h-4zm-8 0h4v4h-4zm-56 0h4v4h-4zm8 0h24v4H36z" fill="#fff"/><path d="M20 36h8v8h-8zm-4 12h16v4H16zm4 8h8v8h-8zm-4 12h16v4H16z" fill="#3d3846"/><path d="M64 64h40v28.236c0 1.969-1.89 3.75-3.984 3.75H68.001c-2.156 0-4-1.719-4-4z" style="marker:none" color="#bebebe" overflow="visible" fill="#3d3846"/><path d="M78.75 43.875a4 4 0 0 0-2.625 1.5L64.875 59.25a4 4 0 0 0-.875 2.5v4a4 4 0 1 0 8 0v-2.625L82.375 50.5a4 4 0 0 0-3.625-6.625zm8.875 12a4 4 0 1 0-.125 8l8.625 1.5V66a4 4 0 1 0 8 0v-4a4 4 0 0 0-3.25-4l-12-2a4 4 0 0 0-1.25-.125z" style="line-height:normal;-inkscape-font-specification:Sans;text-indent:0;text-align:start;text-decoration-line:none;text-transform:none;marker:none" color="#000" font-weight="400" font-family="Sans" overflow="visible" fill="#3d3846"/></svg>